# xmcd CD database file
#
# Track frame offsets:
#	182
#	11586
#	22392
#	34851
#	46761
#	58948
#	70972
#	83571
#	96075
#	110715
#	125335
#	140334
#	152439
#	166182
#	180370
#	193311
#	206340
#	221570
#	233771
#	245743
#	257867
#
# Disc length: 3630 seconds
#
# Revision: 0
# Processed by: cddbd v1.5.1PL0 Copyright (c) Steve Scherf et al.
# Submitted via: CDex 1.51
#
DISCID=270e2c15
DTITLE=Django Reinhardt - Integrale Django Vol.8 Swing From Paris CD2
DYEAR=1938
DGENRE=Jazz
TTITLE0=I've Got My Love To Keep Me Warm (take1)
TTITLE1=I've Got My Love To Keep Me Warm (take2)
TTITLE2=Please Be Kind
TTITLE3=Louise
TTITLE4=Improvisation No.2 (take1)
TTITLE5=Improvisation No.2 (take2)
TTITLE6=Hungaria (take1)
TTITLE7=Hungaria (take2)
TTITLE8=Jeepers Creepers (take1)
TTITLE9=Jeepers Creepers (take2)
TTITLE10=Swing 39
TTITLE11=Japanese Sandman
TTITLE12=I Wonder Where My Baby Is Tonight (take1)
TTITLE13=I Wonder Where My Baby Is Tonight (take2)
TTITLE14=Tea For Two (take1)
TTITLE15=Tea For Two (take2)
TTITLE16=My Melancholy Baby
TTITLE17=Time On My Hands
TTITLE18=Twelfth Year (take1)
TTITLE19=Twelfth Year (take2)
TTITLE20=Serenade Sans Espoir (Penny Serenade)
EXTD=YEAR: 1938
EXTT0=
EXTT1=
EXTT2=
EXTT3=
EXTT4=
EXTT5=
EXTT6=
EXTT7=
EXTT8=
EXTT9=
EXTT10=
EXTT11=
EXTT12=
EXTT13=
EXTT14=
EXTT15=
EXTT16=
EXTT17=
EXTT18=
EXTT19=
EXTT20=
PLAYORDER=
